<svg width="34" height="34" viewBox="0 0 34 34" fill="none" xmlns="http://www.w3.org/2000/svg">
<path d="M13.7278 12.1425C13.7278 12.4076 13.8332 12.6619 14.0207 12.8494C14.2082 13.0369 14.4625 13.1423 14.7276 13.1423L19.3839 13.143L12.0258 20.5111C11.8382 20.6986 11.7329 20.953 11.7329 21.2182C11.7329 21.4834 11.8382 21.7378 12.0258 21.9253C12.2133 22.1128 12.4677 22.2182 12.7329 22.2182C12.9981 22.2182 13.2524 22.1128 13.44 21.9253L20.7988 14.5565L20.7988 19.2135C20.7965 19.3463 20.8207 19.4782 20.8699 19.6015C20.9191 19.7249 20.9924 19.8372 21.0855 19.9319C21.1785 20.0266 21.2895 20.1018 21.412 20.1531C21.5344 20.2045 21.6659 20.2309 21.7987 20.2309C21.9315 20.2309 22.0629 20.2045 22.1854 20.1531C22.3078 20.1018 22.4188 20.0266 22.5119 19.9319C22.605 19.8372 22.6783 19.7249 22.7275 19.6015C22.7767 19.4782 22.8008 19.3463 22.7985 19.2135L22.7992 14.1429C22.7993 13.7489 22.7217 13.3587 22.5709 12.9947C22.4202 12.6307 22.1992 12.2999 21.9206 12.0213C21.642 11.7427 21.3112 11.5217 20.9472 11.3709C20.5831 11.2202 20.193 11.1426 19.799 11.1426L14.7276 11.1426C14.4625 11.1427 14.2082 11.248 14.0207 11.4355C13.8332 11.623 13.7278 11.8773 13.7278 12.1425Z" fill="#1A1A1A"/>
</svg>
